# xmcd
#
# Track frame offsets:
# 150
# 16049
# 29806
# 45256
# 61640
# 80083
# 95947
# 114130
# 135500
# 148291
# 163203
# 181042
# 196855
# 211268
# 229376
# 248241
#
# Disc length: 3534 seconds
#
#
# Revision: 0
# Processed by: cddbd v1.5.2PL0 Copyright (c) Steve Scherf et al.
# Submitted via: FreeRIP 2.951 
#
DISCID=d80dcc10
DTITLE=Danny Abbot - Danny Abbot
DYEAR=1984
DGENRE=Country
TTITLE0=Just As Good Gone
TTITLE1=Bad Boy (K-92)
TTITLE2=This One Last
TTITLE3=Slow Burn
TTITLE4=Hello
TTITLE5=Rocky Mt. Rain
TTITLE6=My Way
TTITLE7=Love You Any More
TTITLE8=Caught In A Trap
TTITLE9=Why Me
TTITLE10=White Christmas
TTITLE11=Drinkin' My Baby Away
TTITLE12=I Think I'm In Love
TTITLE13=My Way
TTITLE14=Redneck Lovin' Night
TTITLE15=Always On My Mind
EXTD=
EXTT0=
EXTT1=
EXTT2=
EXTT3=
EXTT4=
EXTT5=
EXTT6=
EXTT7=
EXTT8=
EXTT9=
EXTT10=
EXTT11=
EXTT12=
EXTT13=
EXTT14=
EXTT15=
PLAYORDER=
